<svg xmlns="http://www.w3.org/2000/svg">
    <symbol id="brush" viewBox="0 0 512 512">
        <path d="M167.02 309.34c-40.12 2.58-76.53 17.86-97.19 72.3-2.35 6.21-8 9.98-14.59 9.98-11.11 0-45.46-27.67-55.25-34.35C0 439.62 37.93 512 128 512c75.86 0 128-43.77 128-120.19 0-3.11-.65-6.08-.97-9.13l-88.01-73.34zM457.89 0c-15.16 0-29.37 6.71-40.21 16.45C213.27 199.05 192 203.34 192 257.09c0 13.7 3.25 26.76 8.73 38.7l63.82 53.18c7.21 1.8 14.64 3.03 22.39 3.03 62.11 0 98.11-45.47 211.16-256.46 7.38-14.35 13.9-29.85 13.9-45.99C512 20.64 486 0 457.89 0z"/>
    </symbol>
    <symbol id="rectFill" viewBox="0 0 512 512">
        <path d="M464 448H48c-26.5 0-48-21.5-48-48V112c0-26.5 21.5-48 48-48h416c26.5 0 48 21.5 48 48v288c0 26.5-21.5 48-48 48z"/>
    </symbol>
    <symbol id="rect" viewBox="0 0 512 512">
        <path d="M464 64H48C21.5 64 0 85.5 0 112v288c0 26.5 21.5 48 48 48h416c26.5 0 48-21.5 48-48V112c0-26.5-21.5-48-48-48zm16 336c0 8.8-7.2 16-16 16H48c-8.8 0-16-7.2-16-16V112c0-8.8 7.2-16 16-16h416c8.8 0 16 7.2 16 16v288z"/>
    </symbol>
    <symbol id="circleFill" viewBox="0 0 512 512">
        <path d="M256 8C119 8 8 119 8 256s111 248 248 248 248-111 248-248S393 8 256 8z"/>
    </symbol>
    <symbol id="circle" viewBox="0 0 512 512">
        <path d="M256 8C119 8 8 119 8 256s111 248 248 248 248-111 248-248S393 8 256 8zm216 248c0 118.7-96.1 216-216 216-118.7 0-216-96.1-216-216 0-118.7 96.1-216 216-216 118.7 0 216 96.1 216 216z"/>
    </symbol>
    <symbol id="ellipseFill" viewBox="0 0 35 35" style="enable-background:new 0 0 35 35;">
        <path d="M17.5,7C7.9,7,0,11.7,0,17.5S7.9,28,17.5,28S35,23.3,35,17.5S27.1,7,17.5,7z"/>
    </symbol>
    <symbol id="ellipse" viewBox="0 0 35 35" >
        <path d="M17.5,8.3c9,0,16.4,4.1,16.4,9.2s-7.3,9.2-16.4,9.2S1.1,22.7,1.1,17.6S8.5,8.3,17.5,8.3 M17.5,7C7.9,7,0,11.7,0,17.5
	S7.9,28,17.5,28S35,23.3,35,17.5S27.1,7,17.5,7z"/>
    </symbol>
    <symbol id="line" viewBox="0 0 512 512">
        <path d="M640 247.5v17a16 16 0 0 1-16 16H16a16 16 0 0 1-16-16v-17a16 16 0 0 1 16-16h608a16 16 0 0 1 16 16z"/>
    </symbol>
    <symbol id="eraser" viewBox="0 0 512 512">
        <path d="M497.941 273.941c18.745-18.745 18.745-49.137 0-67.882l-160-160c-18.745-18.745-49.136-18.746-67.883 0l-256 256c-18.745 18.745-18.745 49.137 0 67.882l96 96A48.004 48.004 0 0 0 144 480h356c6.627 0 12-5.373 12-12v-40c0-6.627-5.373-12-12-12H355.883l142.058-142.059zm-302.627-62.627l137.373 137.373L265.373 416H150.628l-80-80 124.686-124.686z"/>
    </symbol>
    <symbol id="save" viewBox="0 0 512 512">
        <path d="M433.941 129.941l-83.882-83.882A48 48 0 0 0 316.118 32H48C21.49 32 0 53.49 0 80v352c0 26.51 21.49 48 48 48h352c26.51 0 48-21.49 48-48V163.882a48 48 0 0 0-14.059-33.941zM272 80v80H144V80h128zm122 352H54a6 6 0 0 1-6-6V86a6 6 0 0 1 6-6h42v104c0 13.255 10.745 24 24 24h176c13.255 0 24-10.745 24-24V83.882l78.243 78.243a6 6 0 0 1 1.757 4.243V426a6 6 0 0 1-6 6zM224 232c-48.523 0-88 39.477-88 88s39.477 88 88 88 88-39.477 88-88-39.477-88-88-88zm0 128c-22.056 0-40-17.944-40-40s17.944-40 40-40 40 17.944 40 40-17.944 40-40 40z"/>
    </symbol>
    <symbol id="undo" viewBox="0 0 512 512">
        <path d="M12 8h27.711c6.739 0 12.157 5.548 11.997 12.286l-2.347 98.568C93.925 51.834 170.212 7.73 256.793 8.001 393.18 8.428 504.213 120.009 504 256.396 503.786 393.181 392.835 504 256 504c-63.926 0-122.202-24.187-166.178-63.908-5.113-4.618-5.354-12.561-.482-17.433l19.738-19.738c4.498-4.498 11.753-4.785 16.501-.552C160.213 433.246 205.895 452 256 452c108.322 0 196-87.662 196-196 0-108.322-87.662-196-196-196-79.545 0-147.941 47.282-178.675 115.302l126.389-3.009c6.737-.16 12.286 5.257 12.286 11.997V212c0 6.627-5.373 12-12 12H12c-6.627 0-12-5.373-12-12V20C0 13.373 5.373 8 12 8z"/>
    </symbol>
    <symbol id="redo" viewBox="0 0 512 512">
        <svg focusable="false" xmlns="http://www.w3.org/2000/svg" viewBox="0 0 512 512"
             class="svg-inline--fa fa-redo fa-w-16 fa-3x">
            <path d="M500 8h-27.711c-6.739 0-12.157 5.548-11.997 12.286l2.347 98.568C418.075 51.834 341.788 7.73 255.207 8.001 118.82 8.428 7.787 120.009 8 256.396 8.214 393.181 119.165 504 256 504c63.926 0 122.202-24.187 166.178-63.908 5.113-4.618 5.354-12.561.482-17.433l-19.738-19.738c-4.498-4.498-11.753-4.785-16.501-.552C351.787 433.246 306.105 452 256 452c-108.322 0-196-87.662-196-196 0-108.322 87.662-196 196-196 79.545 0 147.941 47.282 178.675 115.302l-126.389-3.009c-6.737-.16-12.286 5.257-12.286 11.997V212c0 6.627 5.373 12 12 12h192c6.627 0 12-5.373 12-12V20c0-6.627-5.373-12-12-12z"/>
        </svg>
    </symbol>
    <symbol id="save" viewBox="0 0 512 512">
        <path d="M500 8h-27.711c-6.739 0-12.157 5.548-11.997 12.286l2.347 98.568C418.075 51.834 341.788 7.73 255.207 8.001 118.82 8.428 7.787 120.009 8 256.396 8.214 393.181 119.165 504 256 504c63.926 0 122.202-24.187 166.178-63.908 5.113-4.618 5.354-12.561.482-17.433l-19.738-19.738c-4.498-4.498-11.753-4.785-16.501-.552C351.787 433.246 306.105 452 256 452c-108.322 0-196-87.662-196-196 0-108.322 87.662-196 196-196 79.545 0 147.941 47.282 178.675 115.302l-126.389-3.009c-6.737-.16-12.286 5.257-12.286 11.997V212c0 6.627 5.373 12 12 12h192c6.627 0 12-5.373 12-12V20c0-6.627-5.373-12-12-12z"/>
    </symbol>
</svg>



